<?xml version="1.0" encoding="utf-8"?>
<!-- Generator: Adobe Illustrator 22.0.1, SVG Export Plug-In . SVG Version: 6.00 Build 0)  -->
<svg version="1.1" id="Layer_1" xmlns="http://www.w3.org/2000/svg" xmlns:xlink="http://www.w3.org/1999/xlink" x="0px" y="0px"
	 viewBox="0 0 32 32" style="enable-background:new 0 0 32 32;" xml:space="preserve">
<style type="text/css">
	.st0{fill:#FFFFFF;}
</style>
<path class="st0" d="M1.5,0L4,28.8L15.6,32l11.6-3.2L29.7,0L1.5,0L1.5,0z M12.1,7.5L11.6,13l12.1,0L23.6,14l-0.8,9.3l-0.1,0.6
	l-7.2,2l-7.2-2l-0.5-5.5h3.5l0.3,2.8l3.9,1.1l3.9-1.1l0.4-4.6l-12.1,0l0.1-0.9l0.8-9.3l0.3-2.6H23l0.2,2l0.5,5.6h-3.5l-0.3-3.6
	l-3.6-0.2h-0.6v0L12.1,7.5L12.1,7.5z"/>
</svg>
