<?xml version="1.0" encoding="utf-8"?>
<!-- Generator: Adobe Illustrator 27.2.0, SVG Export Plug-In . SVG Version: 6.00 Build 0)  -->
<svg version="1.1" id="Capa_1" xmlns="http://www.w3.org/2000/svg" xmlns:xlink="http://www.w3.org/1999/xlink" x="0px" y="0px"
	 viewBox="0 0 800 800" style="enable-background:new 0 0 800 800;" xml:space="preserve">
<style type="text/css">
	.st0{fill:#FFFFFF;}
</style>
<g>
	<g>
		<path class="st0" d="M402.8,356.3c-35.9,0-56.5,35.1-56.5,78.6c-0.4,44.1,21,77.9,56.2,77.9c35.5,0,56.2-33.4,56.2-78.9
			C458.6,391.5,438.6,356.3,402.8,356.3z"/>
		<path class="st0" d="M709.4,286.1h-19.2v-92.7c0-0.6-0.1-1.2-0.2-1.8c0-3.7-1.2-7.3-3.7-10.2L532.1,5.4c0,0-0.1-0.1-0.1-0.1
			c-0.9-1-2-1.9-3.1-2.6c-0.3-0.2-0.7-0.4-1-0.6c-1-0.5-2-1-3.1-1.3c-0.3-0.1-0.6-0.2-0.8-0.3c-1.2-0.3-2.4-0.4-3.6-0.4H141.2
			c-17.3,0-31.4,14.1-31.4,31.4v254.8H90.6c-24.8,0-44.8,20.1-44.8,44.8v233.2c0,24.7,20.1,44.8,44.8,44.8h19.2v159.6
			c0,17.3,14.1,31.4,31.4,31.4h517.6c17.3,0,31.4-14.1,31.4-31.4V609h19.2c24.8,0,44.8-20.1,44.8-44.8V331
			C754.2,306.2,734.2,286.1,709.4,286.1z M141.2,31.4h363.4v160.5c0,8.7,7,15.7,15.7,15.7h138.6v78.6H141.2V31.4z M515.1,550
			l-15.2,40.7c-33.1-9.7-60.6-19.7-91.7-32.7c-5.1-2.1-10.7-3.1-16.2-3.4c-52.4-3.4-101.3-42-101.3-117.9c0-69.6,44.1-122,113.4-122
			c71,0,109.9,53.8,109.9,117.2c0,52.7-24.5,89.9-55.1,103.7v1.4C476.9,542.1,496.8,546.2,515.1,550z M106.4,540l10.7-43.4
			c14.1,7.2,35.8,14.5,58.2,14.5c24.1,0,36.9-10,36.9-25.1c0-14.5-11-22.8-38.9-32.7c-38.6-13.4-63.8-34.8-63.8-68.6
			c0-39.6,33.1-70,87.9-70c26.2,0,45.5,5.5,59.3,11.7l-11.7,42.4c-9.3-4.5-25.8-11-48.6-11c-22.8,0-33.8,10.3-33.8,22.4
			c0,14.8,13.1,21.4,43.1,32.8c41,15.2,60.3,36.5,60.3,69.3c0,39-30,72-93.8,72C145.7,554.1,119.5,547.2,106.4,540z M658.8,760.1
			H141.2V609h517.6V760.1z M693.6,550.7H548.5V318.4h52.8v188.2h92.4V550.7z"/>
	</g>
</g>
</svg>
