<?xml version="1.0" encoding="utf-8"?>
<!-- Generator: Adobe Illustrator 22.0.1, SVG Export Plug-In . SVG Version: 6.00 Build 0)  -->
<svg version="1.1" id="Layer_1" xmlns="http://www.w3.org/2000/svg" xmlns:xlink="http://www.w3.org/1999/xlink" x="0px" y="0px"
	 viewBox="0 0 32 32" style="enable-background:new 0 0 32 32;" xml:space="preserve">
<style type="text/css">
	.st0{fill:#FFFFFF;}
</style>
<path class="st0" d="M19.1,0.2l1.2,0.3l1,0.3L22,1.3l0.6,0.4l0.5,0.5l0.3,0.5L23.6,3l0.1,0.4l0.1,0.3l0,0.3l0,0.2v7.1l-0.1,0.8
	l-0.2,0.7l-0.3,0.6L23,14l-0.4,0.4l-0.4,0.3L21.7,15l-0.5,0.2l-0.4,0.1l-0.4,0.1L20,15.5l-0.3,0h-8l-0.9,0.1l-0.8,0.2l-0.7,0.3
	l-0.5,0.4l-0.4,0.4l-0.4,0.5l-0.3,0.5l-0.2,0.5l-0.1,0.5l-0.1,0.4l-0.1,0.4l0,0.3v4.1h-3l-0.3,0l-0.4-0.1l-0.4-0.2l-0.5-0.2L2.3,23
	l-0.5-0.5l-0.5-0.6l-0.4-0.8l-0.4-1L0.3,19l-0.2-1.4L0,16l0.1-1.6l0.2-1.4l0.3-1.2L1,10.8l0.5-0.8l0.5-0.6l0.6-0.4l0.6-0.3l0.5-0.2
	l0.5-0.1l0.4-0.1l0.3,0h0.2l0.1,0h10.9V7.2H8.3l0-3.7l0-0.5l0.1-0.5l0.1-0.4l0.2-0.4l0.3-0.3l0.4-0.3L10,0.9l0.6-0.2l0.7-0.2L12,0.3
	l0.8-0.1l0.9-0.1l1-0.1L16,0l1.7,0.1L19.1,0.2z M10.7,2.9l-0.3,0.4l-0.1,0.5l0.1,0.5l0.3,0.5l0.4,0.3l0.5,0.1l0.5-0.1l0.4-0.3
	L13,4.4l0.1-0.5L13,3.3l-0.3-0.4l-0.4-0.3l-0.5-0.1l-0.5,0.1L10.7,2.9z M28.1,8.1l0.4,0.1l0.4,0.2l0.5,0.2L29.9,9l0.5,0.5l0.5,0.6
	l0.4,0.8l0.4,1l0.3,1.2l0.2,1.4l0.1,1.6l-0.1,1.6l-0.2,1.4l-0.3,1.1l-0.4,0.9l-0.5,0.8l-0.5,0.6L29.5,23L29,23.3l-0.5,0.2L28,23.6
	l-0.4,0.1l-0.3,0l-0.2,0h-11v1.1h7.8l0,3.7l0,0.5l-0.1,0.5l-0.1,0.4l-0.2,0.4l-0.3,0.3l-0.4,0.3l-0.5,0.3l-0.6,0.2l-0.7,0.2
	l-0.8,0.2l-0.9,0.1l-0.9,0.1l-1,0.1l-1.1,0l-1.7-0.1l-1.4-0.2l-1.2-0.3l-1-0.3l-0.8-0.4l-0.6-0.4l-0.5-0.5l-0.3-0.5L8.5,29l-0.1-0.4
	l-0.1-0.3l0-0.3l0-0.2v-7.1l0.1-0.9l0.2-0.7l0.3-0.6L9.2,18l0.4-0.4l0.4-0.3l0.5-0.3l0.5-0.2l0.4-0.1l0.4-0.1l0.3-0.1l0.5,0h7.8
	l0.9-0.1l0.8-0.2l0.7-0.3l0.5-0.4l0.4-0.4l0.4-0.5l0.3-0.5l0.2-0.5l0.1-0.5l0.1-0.4l0.1-0.4l0-0.3V8.1h2.8l0.2,0L28.1,8.1z
	 M19.5,27.1l-0.3,0.4l-0.1,0.5l0.1,0.5l0.3,0.4l0.4,0.3l0.5,0.1l0.5-0.1l0.4-0.3l0.3-0.4l0.1-0.5l-0.1-0.5l-0.3-0.4L21,26.8
	l-0.5-0.1l-0.5,0.1L19.5,27.1z"/>
</svg>
