<svg id="Layer_1" data-name="Layer 1" xmlns="http://www.w3.org/2000/svg" viewBox="0 0 530.49 530.49"><defs><style>.cls-1{fill:#231f20;}</style></defs><g id="H"><path class="cls-1" d="M158,202.27l86.43-88.54V287.3l87.14-85V27.3l.81-.83A267.13,267.13,0,0,0,288,22.75C141.51,22.75,22.75,141.51,22.75,288A265.16,265.16,0,0,0,158,519.24Z" transform="translate(-22.75 -22.75)"/><path class="cls-1" d="M418,56.76V375.84l-86.43,86.43V288l-87.14,87.13V549.66A266.3,266.3,0,0,0,288,553.25c146.49,0,265.25-118.76,265.25-265.25A265.16,265.16,0,0,0,418,56.76Z" transform="translate(-22.75 -22.75)"/></g></svg>