<?xml version="1.0" standalone="no"?><svg xmlns="http://www.w3.org/2000/svg" viewBox="0 0 1440 320"><path fill="#000000" fill-opacity="1" d="M0,192L34.3,202.7C68.6,213,137,235,206,224C274.3,213,343,171,411,144C480,117,549,107,617,112C685.7,117,754,139,823,170.7C891.4,203,960,245,1029,245.3C1097.1,245,1166,203,1234,181.3C1302.9,160,1371,160,1406,160L1440,160L1440,320L1405.7,320C1371.4,320,1303,320,1234,320C1165.7,320,1097,320,1029,320C960,320,891,320,823,320C754.3,320,686,320,617,320C548.6,320,480,320,411,320C342.9,320,274,320,206,320C137.1,320,69,320,34,320L0,320Z"></path></svg>